<svg xmlns="http://www.w3.org/2000/svg" width="256" height="256"><path fill="#1976D2" fill-opacity=".29" fill-rule="evenodd" d="M0 128.004v128.004l128.25-.254 128.25-.254.254-127.75L257.008 0H0zm.485.496c0 70.4.119 99.053.265 63.672s.146-92.98 0-128S.485 58.1.485 128.5"/><path fill="#1976D2" fill-opacity=".227" fill-rule="evenodd" d="M0 128.004v128.004l128.25-.254 128.25-.254.254-127.75L257.008 0H0zm.485.496c0 70.4.119 99.053.265 63.672s.146-92.98 0-128S.485 58.1.485 128.5m127.153-79.344c.505 3.114 0 4.042-5.518 10.13-10.489 11.575-12.93 19.798-7.37 24.827 6.167 5.578 6.42 5.62 4.716.792-.841-2.386-1.265-5.542-.942-7.013.702-3.199 6.058-11.892 7.326-11.892.492 0 1.18 1.788 1.53 3.974.365 2.284 1.892 5.406 3.592 7.342 3.632 4.136 5.287 8.262 4.438 11.066-.515 1.704.072 1.439 3.001-1.354 4.827-4.602 6.241-9.378 4.651-15.706-.667-2.652-1.962-5.652-2.878-6.667-1.611-1.784-1.685-1.771-2.198.405-.546 2.314-3.454 4.805-4.448 3.811-.307-.307.19-2.578 1.106-5.047 1.62-4.372 1.602-4.612-.66-9.142-1.278-2.559-3.354-5.62-4.613-6.803l-2.289-2.151zM106 59.826c0 1.012 4.336 5.174 5.391 5.174.959 0-3.623-5.87-4.641-5.945-.412-.03-.75.317-.75.771m41.174 1.488c-1.196 1.273-2.174 2.623-2.174 3 0 1.56 1.763.498 3.842-2.314 2.616-3.538 1.459-4.014-1.668-.686m8.586 10.98c-5 2.949-4.813 4.284.24 1.706 2.2-1.122 4-2.482 4-3.02 0-1.238.184-1.295-4.24 1.314m-58.233.001c2.645 1.737 7.473 3.784 7.473 3.169 0-.857-6.434-4.456-7.973-4.46-1.037-.003-.89.379.5 1.291m28.166 11.061c-.373.974.347 2.716 1.812 4.381 2.869 3.259 3.134 2.12.61-2.617-1.398-2.625-1.94-3.019-2.422-1.764M89.25 87.662c-.955.385-1.25 6.594-1.25 26.272v25.768l8.75-.023c5.268-.014 10.964.632 14.314 1.623 5.496 1.626 14.655 7.312 13.553 8.414-.313.313-1.142.114-1.843-.441-4.612-3.656-23.347-5.732-34.524-3.824l-4.25.725v-26.171c0-20.493-.271-26.081-1.25-25.755-.95.316-1.314 6.904-1.516 27.452l-.266 27.036 15.766-.477c14.379-.436 16.264-.289 21.425 1.668 3.112 1.181 6.205 2.805 6.872 3.609 1.758 2.117 4.115 1.805 7.998-1.06 1.88-1.387 5.158-2.99 7.284-3.562 4.878-1.314 20.258-1.647 28.384-.615l6.196.786.668-3.562c.368-1.959.406-6.816.084-10.794-.321-3.977-.598-14.768-.615-23.981-.025-13.855-.278-16.75-1.462-16.75-1.205 0-1.434 4.058-1.443 25.61-.006 14.085-.149 25.705-.318 25.823-.169.117-4.582-.045-9.807-.36-12.108-.73-20.2.306-26.464 3.389-2.73 1.344-5.114 2.294-5.297 2.111-.183-.184 1.869-1.95 4.561-3.926 6.032-4.428 14.117-6.638 24.95-6.819 8.152-.137 8.251-.169 8.344-2.733.051-1.427.094-12.892.094-25.477.001-18.043-.283-23.078-1.343-23.807-1.719-1.18-14.068-.297-16.88 1.208-3.29 1.761-1.775 2.134 3.806.937 2.785-.597 6.563-.915 8.396-.706l3.333.38.268 23.537.267 23.537-9.267.56c-11.044.668-19.382 3.489-24.814 8.396l-3.784 3.419-2.451-2.451c-5.293-5.293-14.143-8.38-27.114-9.456L90.5 136.5l.056-22.821c.047-18.724.316-22.998 1.5-23.802 1.445-.981 11.136-.508 14.277.697.917.352 1.667.179 1.667-.384 0-2.025-14.988-4.046-18.75-2.528m25.211 7.401c-.361.585.132 1.935 1.096 3 1.527 1.688 3.14 1.937 12.527 1.937 11.074 0 13.916-.933 13.916-4.571 0-1.168-2.459-1.429-13.441-1.429-8.413 0-13.687.398-14.098 1.063m-12.961 8.65c-3.767.906-4.228 2.545-.5 1.778 4.449-.916 7.433-2.47 4.5-2.345-1.1.047-2.9.302-4 .567m51.366.85c1.852.846 3.614 1.29 3.917.987.846-.846.024-1.263-3.783-1.92l-3.5-.604zM120 105.5c.898 1.082 3.273 1.5 8.515 1.5 5.541 0 7.408-.357 7.847-1.5.485-1.266-.846-1.5-8.516-1.5-7.967 0-8.937.185-7.846 1.5m-10.804 8.798c-3.815 3.935-4.311 6.094-.604 2.626 2.365-2.212 4.959-5.924 4.139-5.924-.186 0-1.777 1.484-3.535 3.298m14.917 2.452c.395 3.162.756 8.251.803 11.309.05 3.293.695 6.35 1.584 7.5 1.432 1.853 1.563 1.86 2.883.159.822-1.058 1.66-5.727 2.065-11.5.374-5.345.907-10.505 1.184-11.468.43-1.496-.204-1.75-4.367-1.75h-4.87zM143 111.608c0 .55 1.575 2.526 3.5 4.392s3.5 2.942 3.5 2.392-1.575-2.526-3.5-4.392-3.5-2.942-3.5-2.392M34.936 167.423c.808.973 1.083 5.369.872 13.925l-.308 12.503 6.871.688c7.237.725 8.58.123 8.614-3.862.014-1.699-.163-1.682-2.62.25-1.449 1.14-3.959 2.073-5.577 2.073h-2.943l.328-13.501.327-13.502-3.372.002c-2.803.001-3.173.241-2.192 1.424m89.564 13.115v14.537l7.5-.287c7.029-.27 7.521-.437 7.835-2.654.323-2.282.252-2.308-1.973-.75-1.269.889-3.817 1.616-5.662 1.616h-3.355l.328-13.501.327-13.502-2.5.002-2.5.001zm-65.196-7.582c-6.013 3.667-6.772 14.596-1.353 19.499 2.466 2.233 10.026 3.163 12.956 1.595 2.948-1.578 6.085-6.9 6.089-10.332.014-10.001-9.474-15.773-17.692-10.762M81.5 183.002v12l2.603-.001c2.521-.001 2.588-.159 2.123-5.001-.596-6.207 1.478-6.833 4.806-1.449 2.315 3.747 6.598 7.152 7.66 6.091.346-.347-.064-1.42-.911-2.386s-2.243-3.145-3.102-4.843c-1.471-2.908-1.44-3.207.534-5.181 2.581-2.582 2.668-8.115.157-9.951-.969-.708-4.462-1.28-7.811-1.28l-6.059.002zm22.465-10.068c1.288 2.407 1.355 14.464.105 18.823l-.93 3.243h7.323c5.755 0 7.453-.339 7.93-1.582 1.123-2.926.62-3.541-1.616-1.975-1.816 1.273-7.607 2.238-7.839 1.307-.035-.137-.305-2.387-.6-5-.535-4.735-.528-4.75 2.479-4.75 1.659 0 3.217.563 3.463 1.25.245.688.742.978 1.105.645.362-.332.227-1.682-.3-3-.527-1.317-.987-1.803-1.022-1.079-.04.836-1.067 1.201-2.813 1-2.461-.283-2.782-.763-3.057-4.566l-.308-4.25h3.858c2.121 0 4.463.563 5.204 1.25 1.102 1.023 1.23.917.7-.582-.356-1.007-.647-2.02-.647-2.25s-3.166-.418-7.035-.418c-6.646 0-6.978.107-6 1.934m41.066.124c1.155 2.157.781 18.818-.466 20.838-.446.72.466 1.104 2.626 1.105h3.309l-.5-7.81c-.275-4.296-.245-9.696.067-12.001l.567-4.19h-3.352c-3.074 0-3.261.171-2.251 2.058m15.795-.346c-3.512 2.179-4.826 5.277-4.826 11.381 0 3.935.508 5.506 2.388 7.386 2.782 2.782 7.846 3.922 12.112 2.727 2.792-.783 3.035-1.235 3.512-6.524l.512-5.682h-2.885c-2.387 0-2.68.246-1.697 1.43.653.787 1.046 3.149.873 5.25-.286 3.469-.603 3.848-3.449 4.125-3.72.361-6.942-3.028-7.941-8.353-.934-4.979.702-8.675 4.838-10.931l3.627-1.978 3.055 2.258c2.898 2.143 3.055 2.16 3.055.336 0-1.058-.712-2.196-1.582-2.53-2.945-1.13-8.904-.562-11.592 1.105m20.674 10.104c0 11.273.091 11.795 2 11.431 1.761-.336 1.959-1.031 1.657-5.814l-.342-5.433h11.37l-.342 5.501c-.33 5.294-.248 5.502 2.157 5.499l2.5-.003v-22.999l-2.5.001c-2.383 0-2.484.236-2.15 5.056l.351 5.056-5.351-.305c-4.979-.285-5.372-.493-5.662-3.007-.171-1.485.182-3.622.786-4.75.983-1.838.809-2.049-1.689-2.048l-2.785.002zm24.5-8.995c0 2.111.143 2.179 1.571.75.865-.864 2.469-1.571 3.565-1.571 1.884 0 1.975.574 1.678 10.502l-.314 10.502h5l-.314-10.502c-.282-9.423-.136-10.502 1.421-10.502.954 0 2.604.786 3.666 1.747 1.861 1.685 1.918 1.658 1.579-.727-.344-2.415-.562-2.475-9.102-2.497-8.494-.022-8.75.045-8.75 2.298m-145.727 1.885c-2.627 4.01-2.415 12.596.38 15.391 2.722 2.722 6.934 2.76 9.607.087 3.173-3.172 3.603-11.84.766-15.434-3.023-3.829-8.259-3.85-10.753-.044M86 178.003c0 4.996.071 5.122 2.727 4.813 5.926-.687 6.287-9.044.415-9.629L86 172.873z"/><path fill="#1976D2" fill-opacity=".743" fill-rule="evenodd" d="M0 128.004v128.004l128.25-.254 128.25-.254.254-127.75L257.008 0H0zm.485.496c0 70.4.119 99.053.265 63.672s.146-92.98 0-128S.485 58.1.485 128.5m126.668-80.492c1.244 3.571.396 5.156-7.317 13.673-5.555 6.134-8.78 12.254-8.814 16.724-.016 2.109 1.085 3.958 4.02 6.75 4.961 4.719 7.571 5.248 5.405 1.095-2.833-5.43-.814-13.897 4.447-18.655 2.102-1.902 2.106-1.899 2.106 1.527 0 2.464 1.156 4.971 4.1 8.889 3.542 4.714 4.032 5.97 3.595 9.223l-.505 3.767 3.004-2.139c1.652-1.177 3.858-3.539 4.901-5.251 3.347-5.488 1.999-16.802-2.44-20.483-1.444-1.198-1.655-1.122-1.655.595 0 1.082-.965 2.824-2.145 3.872l-2.146 1.905.717-3c1.981-8.291 1.875-9.356-1.442-14.525-1.778-2.771-4.055-5.478-5.06-6.015-1.671-.895-1.737-.721-.771 2.048M105 58.81c0 1.555 6.429 7.403 6.827 6.21.216-.649-.866-2.495-2.404-4.1-2.768-2.889-4.423-3.679-4.423-2.11m42.1 2.269c-1.252 1.693-2.01 3.345-1.684 3.67.823.824 5.584-3.8 5.584-5.423 0-2.182-1.484-1.515-3.9 1.753M96 70.98c0 .857 7.016 5.02 8.46 5.02 1.879 0-.075-2.273-3.42-3.98-4.501-2.296-5.04-2.407-5.04-1.04m58.506 1.748c-2.196 1.435-3.467 2.785-2.824 2.999 1.718.573 9.491-3.639 8.794-4.765-.841-1.361-1.471-1.174-5.97 1.766M125 83.944c0 2.227 4.497 7.888 5.485 6.903.85-.848-3.223-8.847-4.505-8.847-.539 0-.98.875-.98 1.944m-37.505 6.232c-.352 1.877-.387 12.618-.077 23.869s.568 21.693.573 23.205L88 140h7.79c9.598 0 18.283 2.166 24.21 6.037 5.367 3.506 4.948 3.713-1.623.802-5.776-2.56-20.823-3.616-29.276-2.055l-5.398.997.55-26.445c.504-24.224.411-26.418-1.101-26.128-1.464.28-1.724 3.203-2.286 25.665-.348 13.942-.31 26.537.086 27.988.59 2.164 1.245 2.599 3.634 2.414l11.45-.876c11.203-.856 21.411.864 27.303 4.601l4.484 2.844 3.338-1.941c8.58-4.986 9.947-5.307 22.839-5.356 6.875-.026 14.525.178 17 .453l4.5.5.267-26.878C176.027 96.355 175.7 93 172.878 93c-.483 0-.878 11.696-.878 25.99v25.991l-10.415-.637c-11.619-.711-20.928.607-26.585 3.764l-3.5 1.954 3.5-2.96c4.946-4.182 11.907-6.183 23.766-6.83l10.267-.561-.267-26.105L168.5 87.5l-7.719-.292c-5.557-.209-8.578.153-10.783 1.293-3.899 2.016-3.046 3.66 1.259 2.425 5.043-1.446 13.436-1.167 14.064.467.294.766.581 11.116.639 23l.105 21.607-4.782.017c-11.192.041-27.291 5.46-31.047 10.45l-1.736 2.307-3.619-3.266c-4.873-4.398-13.464-7.476-24.631-8.825L91 135.565V89.704l9.16.593c8.481.55 9.038.473 7.523-1.042-1.192-1.193-4.066-1.753-10.592-2.065l-8.956-.428zM114 95.8c0 3.59 2.032 4.2 14 4.2s14-.61 14-4.2c0-1.648-1.185-1.8-14-1.8s-14 .152-14 1.8m-12 7.38c-4.133 1.181-4.393 1.375-3.582 2.687.396.641 2.224.452 5.101-.528 2.465-.84 4.231-1.935 3.923-2.433-.652-1.055-.82-1.046-5.442.274m47-.345c0 .996 5.241 3.165 7.649 3.165 2.43 0 1.416-1.768-1.399-2.439-1.512-.361-3.537-.89-4.5-1.176s-1.75-.083-1.75.45m-30 .811c0 .267.466 1.356 1.035 2.42.867 1.619 2.135 1.934 7.8 1.934 6.463 0 9.174-1.021 9.158-3.45-.004-.642-3.498-1.116-9-1.22-4.946-.093-8.993.049-8.993.316m-10.804 10.652c-3.319 3.424-3.912 4.702-2.182 4.702 1.111 0 6.91-6.043 6.957-7.25.061-1.568-1.692-.633-4.775 2.548m15.569 6.952c.253 5.638 1.023 11.6 1.712 13.25 3.641 8.728 3.38 8.365 3.455 4.809.038-1.755.487-3.45.998-3.766.924-.571 1.522-4.844 2.49-17.793l.505-6.75h-9.621zm19.264-9.5c.064 1.62 6.083 7.299 7.083 6.681.645-.399-.228-1.987-2.221-4.044-3.16-3.26-4.923-4.216-4.862-2.637M34.886 167.363c1.219 1.468 1.037 24.047-.203 25.288-1.792 1.791-.05 2.349 7.342 2.349 7.752 0 8.059-.09 9.028-2.639 1.267-3.333.494-4.166-1.876-2.022-1.009.914-3.487 1.661-5.506 1.661H40v-10.435c0-5.739.439-11.589.975-13 .949-2.495.863-2.565-3.122-2.565-3.346 0-3.89.25-2.967 1.363m89.072.086c.842 1.015 1.104 5.367.872 14.502l-.33 13.052 7.642-.002c7.408-.001 7.661-.081 8.298-2.619.84-3.346.044-4.124-2.184-2.133-.966.863-3.331 1.723-5.256 1.91l-3.5.341-.256-11.304c-.147-6.453.19-12.139.785-13.25.954-1.783.693-1.946-3.116-1.946-3.518 0-3.973.223-2.955 1.449M57.4 174.4c-2.937 2.937-3.4 4.064-3.4 8.277 0 9.897 8.186 15.701 16.546 11.734 4.246-2.015 6.454-5.885 6.454-11.314C77 175.058 72.957 171 64.95 171c-3.386 0-4.776.626-7.55 3.4m23.4-2.2c1.5 1.5 1.631 18.126.165 20.866C80.02 194.831 80.286 195 84 195c3.561 0 3.955-.219 3.149-1.75-1.12-2.126-1.196-7.103-.118-7.769.429-.265 2.397 1.768 4.373 4.518 2.762 3.845 4.207 5.001 6.249 5.001 2.448 0 2.536-.137 1.123-1.75-.844-.963-2.284-3.229-3.2-5.036-1.59-3.139-1.573-3.402.38-5.885 2.536-3.224 2.631-7.488.215-9.674-2.283-2.066-17.431-2.515-15.371-.455m22.7 10.8v12h7.633c7.329 0 7.653-.099 8.107-2.476.613-3.204-.162-3.905-2.237-2.027-.913.826-3.087 1.668-4.831 1.871-3.165.369-3.172.36-3.172-4.332 0-4.222.224-4.685 2.193-4.54 1.206.089 2.368.688 2.583 1.333.763 2.287 2.224 1.126 2.224-1.766 0-2.798-.166-2.91-3.5-2.369l-3.5.568v-4.131c0-3.933.145-4.131 3.031-4.131 1.772 0 3.271.623 3.607 1.5.908 2.366 2.362 1.75 2.362-1 0-2.437-.183-2.5-7.25-2.5h-7.25zm41.316-1.434c.212 7.121-.072 11.038-.873 12.002-.996 1.201-.562 1.432 2.685 1.433l3.872.001-.342-10.537c-.235-7.25.037-10.995.872-12.002 1.031-1.241.628-1.463-2.658-1.465l-3.872-.002zm15.01-8.644c-5.924 4.66-6.365 14.42-.872 19.328 2.45 2.189 4.055 2.75 7.871 2.75 6.467 0 7.946-1.373 8.346-7.751.328-5.24.323-5.25-2.671-5.251l-3-.001.343 5.502c.308 4.958.144 5.501-1.669 5.501-5.23 0-8.174-4.062-8.174-11.276 0-3.281.579-4.919 2.314-6.55 3.241-3.044 9.686-2.756 9.686.433 0 .766.48 1.393 1.066 1.393s.924-1.238.75-2.75c-.298-2.59-.639-2.767-5.875-3.044-4.357-.231-6.111.14-8.115 1.716m20.674 10.08v12l3.064-.001 3.064-.001-.434-6-.434-6h10.48l-.434 6-.434 6 3.064.001 3.064.001v-23.999l-3.95-.002c-3.072-.001-3.683.266-2.75 1.199.66.66 1.2 2.685 1.2 4.5v3.3h-10.26l.507-4.5c.505-4.482.495-4.5-2.62-4.499l-3.127.002zm25.107-10.42c-.334.87-.607 2.29-.607 3.155 0 1.401.2 1.392 1.829-.082 1.006-.91 2.705-1.655 3.776-1.655 1.629 0 1.907.614 1.697 3.75a740 740 0 0 0-.574 10.5l-.323 6.75h3.905c3.373 0 3.789-.238 3.06-1.75-.464-.963-.883-5.687-.931-10.5-.083-8.46-.01-8.75 2.188-8.75 1.25 0 2.712.784 3.248 1.742 1.352 2.415 2.361 1.046 1.565-2.124-.646-2.575-.8-2.618-9.441-2.618-7.088 0-8.902.306-9.392 1.582M62.4 173.765c-3.866 2.581-4.732 13.428-1.361 17.046 6.002 6.443 13.659-1.793 10.966-11.794-1.372-5.095-6.028-7.64-9.605-5.252m24.267-.098c-.367.366-.667 2.616-.667 5 0 3.545.336 4.333 1.845 4.333 2.408 0 5.155-3.088 5.155-5.794 0-2.83-4.518-5.355-6.333-3.539"/><path fill="#1976D2" fill-opacity=".305" fill-rule="evenodd" d="M1.057 39.944c-1.168.739-1.22 1.402-.272 3.484C1.43 44.843 2.417 46 2.979 46c1.537 0 1.23-1.127-.691-2.532-1.448-1.058-1.506-1.5-.378-2.86 1.504-1.812 1.26-2.002-.853-.664M11 42.788c0 .422.9 1.538 2 2.48s2 1.367 2 .944c0-.422-.9-1.538-2-2.48s-2-1.367-2-.944m-5 1.998c0 .432.867.785 1.927.785 1.059 0 1.708-.353 1.441-.785C9.1 44.354 8.234 44 7.441 44S6 44.354 6 44.786m121-.473c0 .172 1.463 1.635 3.25 3.25l3.25 2.937-2.937-3.25c-2.738-3.029-3.563-3.71-3.563-2.937m-1.269 3.767c.354 1.352.807 1.806 1.057 1.057.24-.722-.038-1.787-.62-2.369-.742-.742-.872-.351-.437 1.312M1.5 48.388c-.55.654-1.138 1.811-1.306 2.57-.256 1.151-.021 1.145 1.412-.039 1.329-1.096 1.815-1.135 2.14-.169C4.335 52.499 6 52.314 6 50.5c0-.825-.637-1.5-1.417-1.5-.779 0-1.566-.406-1.75-.901-.183-.496-.783-.366-1.333.289m5.233-.264c.679.684 1.486.991 1.793.683.308-.308-.247-.867-1.233-1.243-1.425-.542-1.54-.428-.56.56M15.5 48c-.34.55.11 1 1 1s1.34-.45 1-1-.79-1-1-1-.66.45-1 1M9 51.031c0 .533.675.969 1.5.969s1.5-.177 1.5-.393-.675-.652-1.5-.969-1.5-.139-1.5.393m9.73-.388c-.286.471.108 1.437.875 2.146 1.546 1.429 1.842.464.505-1.646-.473-.746-1.094-.971-1.38-.5M134 53c.589 1.1 1.295 2 1.57 2s.019-.9-.57-2-1.295-2-1.57-2-.019.9.57 2M2.451 54.08c-.324.524-.915.751-1.313.506-.397-.246-.77.534-.828 1.733-.059 1.2.117 1.6.389.889.381-.992.821-1.021 1.898-.127 1.013.84 1.403.852 1.403.041C4 56.505 3.523 56 2.941 56s-.774-.461-.426-1.025c.378-.61 2.193.209 4.485 2.025 2.851 2.258 4.042 2.719 4.586 1.775.404-.701.364-.939-.089-.529-.453.411-1.582-.501-2.509-2.025-1.672-2.75-5.406-3.972-6.537-2.141m12.68.606c-.753.817-2.216 1.263-3.252.993-1.035-.271-1.663-.139-1.396.294.839 1.357 4.516 1.912 4.532.683.009-.646.443-.495.985.344q.969 1.5.985.25c.023-1.935 1.194-1.451 5.339 2.212 3.644 3.219 3.703 3.365 1.25 3.096-2.785-.306-3.5.873-1.091 1.797.816.313 1.237 1.212.936 1.997-.743 1.935-4.199.917-4.953-1.46-.331-1.041-1.02-1.892-1.533-1.892S16 62.351 16 61.557c0-.91.747-1.298 2.027-1.052 1.216.234 1.771-.023 1.387-.644-.352-.57-1.49-.813-2.528-.541s-1.64.091-1.335-.402c.304-.492-.157-.623-1.025-.29-1.267.487-1.337.895-.355 2.078 1.011 1.219.887 1.414-.725 1.133-1.07-.186-1.849.177-1.73.808.243 1.295-3.422.637-4.292-.77-.304-.492-1.423-.413-2.53.18-1.8.963-1.871.879-.761-.898.673-1.077 1.818-1.731 2.545-1.452S8 59.689 8 59.048s-.45-.888-1-.548-1 .138-1-.449c0-1.168-3.958.692-5.215 2.449-.393.55-.738 44.764-.765 98.254l-.049 97.254 128.264-.254L256.5 255.5l.028-89.5c.015-49.225-.108-81.645-.275-72.044-.214 12.405-.657 17.682-1.527 18.235-.96.61-.955.782.024.794.688.008 1.25.717 1.25 1.574 0 .957-.483 1.286-1.25.853-1-.564-1-.436 0 .641.688.741 1.25 1.947 1.25 2.679 0 1.818-4.102 3.24-6.189 2.147-1.992-1.043-3.737.93-1.854 2.095.668.412 1.063.996.878 1.297s.903 1.521 2.415 2.711 2.714 2.693 2.671 3.341c-.055.826-.229.804-.583-.073-.278-.687-1.381-1.25-2.453-1.25s-2.238-.787-2.593-1.75c-.673-1.824-2.215-3.208-3.601-3.235-.445-.008-.531.435-.191.985s.122 1-.485 1c-.606 0-.97-.741-.809-1.646.162-.906-.269-1.843-.957-2.084-.77-.269-1.032.132-.682 1.045.313.816.081 1.784-.515 2.153-.597.369-.826 1.089-.509 1.601s.098.931-.484.931-1.059-.436-1.059-.969-.749-.681-1.664-.33c-1.119.43-1.427.256-.941-.531.398-.644.246-1.17-.336-1.17s-1.059-.436-1.059-.969.787-.723 1.75-.424c1.59.494 1.585.438-.052-.61-1.371-.878-2.149-.867-3.25.046-1.127.936-1.769.936-2.896 0-.961-.798-2.011-.886-3.125-.262-1.425.798-1.245 1.06 1.197 1.743 1.582.442 3.247.719 3.7.615s.571.221.262.722c-.742 1.201-8.161-1.423-7.845-2.774.157-.676-.574-.721-2.13-.129-1.303.495-3.211.765-4.24.6s-2.359.084-2.954.555c-.676.533-1.084.297-1.084-.629 0-.899 1.018-1.53 2.584-1.6 2.079-.093 2.192-.212.583-.608-1.1-.27-2.496-.892-3.101-1.383-.697-.564-2.622.21-5.242 2.108-4.366 3.163-5.722 3.722-4.591 1.892.446-.722.032-.904-1.191-.522-2.186.682-11.18-1.755-9.746-2.642.531-.328 1.596-.208 2.365.267.819.506 2.208.431 3.354-.182 1.532-.82 1.842-.751 1.431.32-.378.986.394 1.362 2.778 1.353 1.817-.007 3.634-.345 4.039-.75.406-.405.287-.737-.263-.737s-1-.677-1-1.504c0-1.3.216-1.312 1.584-.094 1.368 1.219 1.782 1.194 3.05-.186 1.301-1.415 1.276-1.523-.218-.95-.927.356-1.951.216-2.276-.31s-.059-.956.59-.956c.881 0 .865-.382-.063-1.5-.685-.825-.852-1.507-.372-1.515 1.206-.021-1.888-1.954-3.128-1.954-.55 0-.325.436.5.969 1.295.837 1.271.971-.177.985-.923.008-2.563 1.14-3.644 2.515-1.932 2.456-7.179 3.575-7.179 1.531 0-.532.64-.723 1.423-.422 1.491.572 1.615-1.158.24-3.359-.44-.705-.319-1.25.278-1.25.582 0 1.059-.477 1.059-1.059s-.453-.779-1.007-.437c-.554.343-1.261-.04-1.572-.85-.43-1.12-1.271-1.271-3.512-.628-4.068 1.167-4.444 1.368-4.159 2.224.138.412-.762.757-2 .765-1.819.013-1.963.201-.75.985 1.333.862 1.333.968 0 .953-1.961-.022-5.155-2.464-4.318-3.302.358-.358-.099-.651-1.015-.651-1.838 0-2.277 2.505-.618 3.53.714.442.724 1.039.028 1.877-.71.856-.566 1.878.475 3.363 1.364 1.948 1.318 2.229-.529 3.218-1.989 1.064-2.023.829-2.023-13.753 0-15.106-.507-17.312-3.95-17.172-.951.039-.68.413.7.968l2.25.905v27.473c0 16.318-.387 27.712-.952 28.061-.524.324-4.98.072-9.903-.559-12.906-1.655-24.607-.166-31.277 3.98-2.751 1.71-5.451 3.109-6.001 3.109s-2.433-1.084-4.184-2.408c-5.926-4.483-14.736-5.445-39.183-4.282l-4 .19-.281-26c-.155-14.3-.034-27.013.269-28.25.34-1.391 1.306-2.25 2.531-2.25 1.806 0 1.991.73 2.089 8.25.117 8.886-.181 20.812-.681 27.25-.17 2.2-.069 6.715.225 10.034l.535 6.034 12.656-.388c10.611-.325 13.587-.073 18.407 1.561 3.162 1.072 5.75 1.803 5.75 1.624s-1.85-1.268-4.111-2.422c-5.681-2.898-17.207-5.15-24.389-4.765l-6 .322-.267-26.268-.266-26.269 2.516-.957c2.807-1.067 3.525-2.302.767-1.319C87.267 86.75 86 88.159 86 90.412c0 1.707-.584 2.158-2.75 2.127-2.254-.032-2.923.548-3.707 3.211-.966 3.28-2.825 4.222-4.138 2.095-.426-.689-.276-.884.371-.483.597.369 1.368.213 1.714-.346s.264-1.05-.181-1.093c-2.279-.215-4.562-.842-5.128-1.409-.35-.349.521-.426 1.935-.169 3.335.604 6.153-.921 3.549-1.92-.979-.376-1.557-1.263-1.286-1.971.613-1.598-2.067-2.767-2.975-1.299-.363.588-.04 1.461.718 1.941 1.09.691 1.012.877-.372.889-.963.008-1.757-.547-1.765-1.235-.011-.885-.276-.838-.908.159-.49.775-.632 2.087-.315 2.914.376.98.17 1.253-.592.782-.644-.398-1.17-1.371-1.17-2.164 0-1.322-1.244-1.896-3.324-1.535-.454.079-.54-.318-.191-.881.348-.564 1.731-1.025 3.074-1.025 1.664 0 2.436-.557 2.426-1.75-.009-1.019-.323-1.318-.75-.717-.404.569-1.297.963-1.985.875L66 87.125c-.55-.069-1-.623-1-1.232 0-.616.729-.827 1.641-.477 1.417.543 1.456.406.287-1.003-.775-.933-1.505-1.181-1.706-.579-.193.58-.997.806-1.787.503S62 84.284 62 84.893c0 1.656-2.975 1.335-3.638-.393-.317-.825-1.442-1.5-2.5-1.5s-2.184-.675-2.5-1.5c-.317-.825-.982-1.5-1.477-1.5s-.34.9.347 2 1.761 2 2.386 2 1.706.685 2.401 1.523c1.06 1.277.992 1.419-.419.877-1.368-.525-1.597-.166-1.219 1.916.594 3.276-1.162 2.703-5.735-1.87-2.899-2.899-3.145-3.519-1.893-4.771 1.128-1.127 1.168-1.605.188-2.211-.788-.488-.998-.365-.568.331.376.608-.219 1.588-1.322 2.178-1.68.899-1.904.807-1.377-.565.51-1.33.2-1.503-1.648-.916-1.252.397-2.038.337-1.747-.135.291-.471-1.203-.874-3.322-.896-3.26-.032-3.667.186-2.654 1.424 1.008 1.232.803 1.364-1.303.838-2.377-.593-2.405-.552-.559.827 1.57 1.173 1.639 1.45.357 1.45-1.811 0-3.172-2.651-1.798-3.5.502-.31.631-1.298.286-2.196q-.628-1.635.544-.909c.644.398 1.17.246 1.17-.336 0-1.574 1.92-1.282 3.777.575 1.079 1.079 1.763 1.247 2.014.494.209-.627.749-.912 1.201-.633s.584-.4.294-1.509c-.683-2.613-2.174-3.498-3.559-2.113-.799.799-1.537.704-2.7-.349-1.962-1.775-6.124-.939-5.351 1.075.296.77.08 1.401-.481 1.401-1.5 0-.761-3.263.89-3.929.778-.314 1.448-1.557 1.488-2.761.061-1.817-.238-2.024-1.75-1.215C28.82 68.631 28 69.58 28 70.202s-.27.861-.6.531-.23-1.192.222-1.916c1.149-1.841 1.354-3.817.397-3.817-.443 0-1.064.675-1.381 1.5-.656 1.71-2.638 2.041-2.638.441 0-.582.526-.734 1.17-.336q1.169.722.551-.89c-.403-1.049.03-1.818 1.238-2.202 1.021-.324 2.096-1.214 2.389-1.978.582-1.517-2-4.217-3.039-3.178-.353.354-.117.643.524.643.642 0 1.167.45 1.167 1 0 1.88-2.76 1.003-5.631-1.789-4.931-4.795-5.715-5.177-7.238-3.525M121 58.5c-2.429 2.475-4.191 4.5-3.916 4.5s2.487-2.025 4.916-4.5 4.191-4.5 3.916-4.5-2.487 2.025-4.916 4.5M31 58c-.901.582-1.025.975-.309.985.655.008 1.469-.435 1.809-.985.767-1.242.421-1.242-1.5 0m73.667-.333c-.367.366-.667 1.026-.667 1.465 0 1.103 6.022 7.868 7.004 7.868.438 0-.781-1.577-2.709-3.505-2.117-2.117-3.278-4.097-2.931-5 .616-1.606.371-1.897-.697-.828m42.257 2.083L144.5 62.5l2.75-2.424c2.57-2.266 3.209-3.076 2.424-3.076-.179 0-1.416 1.237-2.75 2.75M111 62.5c1.292 1.375 2.574 2.5 2.849 2.5s-.557-1.125-1.849-2.5-2.574-2.5-2.849-2.5.557 1.125 1.849 2.5m38.872-.75c-1.243 1.586-1.208 1.621.378.378 1.666-1.307 2.195-2.128 1.372-2.128-.207 0-.995.788-1.75 1.75m-14.711 2.797c-1.606 3.524-1.517 4.994.214 3.557.756-.628 1.375-2.258 1.375-3.623 0-3.098-.151-3.092-1.589.066M13 64c0 .55.436 1 .969 1s.723.64.422 1.423c-.343.894.029 1.338 1.003 1.195 2.432-.356 3-1.438 1.626-3.094C15.598 62.81 13 62.471 13 64m-3.573 1.521c1.06.802 2.172 1.214 2.471.914.628-.627-1.912-2.412-3.398-2.388-.55.009-.133.673.927 1.474m105.851-.271c-1.499 1.938-2.442 3.75-1.952 3.75.244 0 1.181-1.125 2.082-2.5 1.686-2.573 1.592-3.476-.13-1.25M6 66c0 .55.477 1 1.059 1s.781-.45.441-1-.816-1-1.059-1S6 65.45 6 66m139.014.414c.648.648 1.324.648 1.972 0 .647-.647.309-.985-.986-.985s-1.633.338-.986.985m-21.142 2.336c-1.243 1.586-1.208 1.621.378.378 1.666-1.307 2.195-2.128 1.372-2.128-.207 0-.995.787-1.75 1.75m-107.136.338c-1.537.895-1.578 1.213-.321 2.469C18.369 73.512 18.6 73.4 18.6 70.5c0-1.375-.022-2.486-.05-2.47-.027.017-.844.493-1.814 1.058m26.771-.099c-.35.566.051.734.941.393 1.732-.665 2.049-1.382.611-1.382-.518 0-1.216.445-1.552.989m5.523.639c-.053 1.989 2.341 3.183 4.47 2.228 1.841-.826 1.821-.863-.252-.47-1.392.265-2.622-.205-3.22-1.229-.532-.911-.981-1.15-.998-.529M97 69.393c0 .216.698.661 1.552.989.89.341 1.291.173.941-.393-.587-.951-2.493-1.406-2.493-.596m59.441 1.162c-1.864 1.494-1.852 1.512.309.465 1.238-.6 2.25-1.3 2.25-1.555 0-.765-.519-.544-2.559 1.09m-35.471 2.5c-.605 1.131-.952 2.5-.77 3.044.181.543.846-.382 1.478-2.056 1.313-3.481.92-4.03-.708-.988m-17.237.069c.679.684 1.486.991 1.793.683.308-.308-.247-.867-1.233-1.243-1.425-.542-1.54-.428-.56.56m6.891.415c-.343.893-.568 3.05-.499 4.793.104 2.636.251 2.412.873-1.332.795-4.784.649-6.129-.374-3.461m-14.541-.162c.23.207 2.285 1.319 4.569 2.47 3.902 1.967 4.231 1.99 5.452.373 1.084-1.434 1.076-1.521-.048-.524-1.058.938-2.169.777-5.162-.75-3.432-1.751-5.902-2.556-4.811-1.569M157 74.5c-1.375.786-2.05 1.429-1.5 1.429s2.125-.643 3.5-1.429 2.05-1.429 1.5-1.429-2.125.643-3.5 1.429m-119.457.431c-.665 1.076 1.292 2.567 2.19 1.669.33-.33-.037-.607-.816-.615-1.167-.013-1.152-.187.083-.985.901-.582 1.025-.975.309-.985-.655-.008-1.45.404-1.766.916M23 76.059c0 .582.45.781 1 .441s1-.816 1-1.059S24.55 75 24 75s-1 .477-1 1.059M52 76c-.901.582-1.025.975-.309.985.655.008 1.469-.435 1.809-.985.767-1.242.421-1.242-1.5 0m78 2.5c1.292 1.375 2.574 2.5 2.849 2.5s-.557-1.125-1.849-2.5-2.574-2.5-2.849-2.5.557 1.125 1.849 2.5M.479 167c0 49.225.122 69.362.271 44.75.149-24.613.149-64.888 0-89.5C.601 97.637.479 117.775.479 167m57.384-88.106c1.151.729 1.151.948 0 1.406-.754.3-.304.577 1.009.621 1.999.067 2.177-.158 1.128-1.421-.685-.825-1.752-1.493-2.372-1.485-.662.009-.564.373.235.879M119.158 80c0 1.375.227 1.938.504 1.25.278-.687.278-1.812 0-2.5-.277-.687-.504-.125-.504 1.25M38.82 81.686c.962.384.758.921-.75 1.977C35.858 85.213 35.316 87 37.059 87c.582 0 .795-.427.472-.95S37.869 84.605 39 84c2.083-1.115 1.877-3.066-.309-2.921q-1.186.08.129.607m85.316 2.39c-.088 1.67.83 3.427 2.614 5l2.75 2.424-2.162-2.5c-1.19-1.375-2.366-3.625-2.614-5l-.452-2.5zm9.316 1.842c.026 2.135.386 3.676.798 3.423.979-.599.938-4.497-.063-6.073-.451-.71-.763.413-.735 2.65m-84.053-1.029c1.038 1.146 2.497 1.689 3.697 1.376 2.368-.62 2.337-.653-2.004-2.119-3.308-1.118-3.357-1.097-1.693.743m70.68-.83c-.043.857.621 2.432 1.476 3.5 1.53 1.91 1.541 1.909.635-.059a62 62 0 0 1-1.476-3.5c-.48-1.296-.567-1.288-.635.059m9.001.941c1.458 3.061 1.92 3.628 1.92 2.358 0-.537-.7-1.849-1.555-2.917-1.467-1.83-1.487-1.798-.365.559M93 85.139c0 .473 1.125.861 2.5.861s2.5-.173 2.5-.383-1.125-.599-2.5-.862-2.5-.09-2.5.384m45.717 2.611c-3.304 3.305-4.489 3.821-9.983 4.348-5.489.526-5.099.597 3.266.6 5.225.001 8.206-.191 6.624-.426l-2.876-.429 3.829-3.922c2.106-2.156 3.618-3.921 3.359-3.921s-2.157 1.688-4.219 3.75M74 86c0 .55.702 1 1.559 1s1.281-.45.941-1-1.041-1-1.559-1-.941.45-.941 1m40.918.363c1.331 1.64 5.082 4.12 5.082 3.36 0-.191-1.463-1.418-3.25-2.726-2.011-1.472-2.71-1.714-1.832-.634m45.351-.67c.973.254 2.323.237 3-.037s-.119-.481-1.769-.461-2.204.244-1.231.498M43 86.933c0 .587.638 1.067 1.418 1.067s2.243.291 3.25.647c1.25.442 1.514.318.832-.387-1.546-1.6-5.5-2.554-5.5-1.327M60.5 87c-1.1.473-1.474.891-.832.93.643.038 1.88.343 2.75.677 1.038.398 1.582.055 1.582-1 0-1.778-.551-1.874-3.5-.607m40-.509c.55.184 2.206.599 3.68.923s3.387 1.295 4.25 2.159c.864.863 1.57 1.099 1.57.524 0-1.456-5.423-4.113-8.2-4.018-1.265.043-1.85.229-1.3.412m52.313.192c.721.289 1.584.253 1.916-.079s-.258-.568-1.312-.525c-1.165.048-1.402.285-.604.604m14 0c.721.289 1.584.253 1.916-.079s-.258-.568-1.312-.525c-1.165.048-1.402.285-.604.604M148 88c-.825.533-1.05.969-.5.969s1.675-.436 2.5-.969 1.05-.969.5-.969-1.675.436-2.5.969m21.261 7.795c.273 4.562.815 8.612 1.206 9 .39.388.387-3.12-.007-7.795-.931-11.044-1.842-11.959-1.199-1.205M47.543 90.931c-.317.512-.118 1.213.441 1.559S49 92.416 49 91.559c0-1.757-.6-2.015-1.457-.628m12.839.26c-.405.655-.232 1.359.385 1.565.616.205.873 1.019.57 1.809-.303.789-.053 1.435.556 1.435 1.436 0 1.436-2.678 0-3.566-.771-.477-.696-.944.25-1.544q1.362-.86.166-.875c-.655-.008-1.522.521-1.927 1.176m31.324-.441c-.226.412-.505 10.694-.619 22.847l-.206 22.098 8.309.608c10.079.739 19.482 3.8 25.29 8.234l4.324 3.3 2.348-2.553c4.683-5.094 17.908-9.286 29.282-9.282l5.066.001-.305-13.587c-.277-12.314-.464-13.522-2-12.888-.932.384-2.595.929-3.695 1.21-1.999.512-1.999.511-.002-1.031 1.1-.849 1.662-1.88 1.25-2.292s-.748-.197-.748.477-.408.974-.906.666-.672-1.454-.387-2.547c.341-1.304-.083-2.218-1.234-2.66-1.656-.635-1.652-.747.078-2.012 1.644-1.202 1.658-1.339.14-1.339-.93 0-1.691.49-1.691 1.088 0 .71-1.352.859-3.897.429-2.644-.446-4.144-.259-4.664.582-.545.882-.255 1.044 1.004.561 2.557-.981 9.557 1.127 9.557 2.879 0 1.79.188 1.791-5.03-.05-2.355-.831-4.512-1.281-4.793-1s.041.511.715.511.947.451.607 1.002c-.341.551.489 1.423 1.844 1.938 2.596.987 4.476 3.06 2.775 3.06-.55 0-1.241-.39-1.535-.866s-1.784-.666-3.309-.422c-2.184.35-2.455.215-1.274-.637 1.213-.874 1.022-1.033-1-.828-1.846.187-2.464-.202-2.363-1.486.075-.957-.277-1.484-.782-1.171-.506.313-2.226.943-3.822 1.401-2.305.661-2.791.543-2.363-.574.297-.773.987-1.129 1.535-.791.568.352.518-.275-.118-1.463-.915-1.71-.779-2.258.769-3.086 1.034-.554 2.237-.685 2.673-.292s.467.151.071-.538c-.546-.948-1.225-.983-2.796-.142-2.441 1.306-19.185 1.749-22.804.603l-2.5-.791 2.5 1.506c1.733 1.044 5.337 1.517 11.75 1.542 5.088.019 9.25.29 9.25.601s-.466 1.436-1.035 2.5c-.888 1.659-2.147 1.934-8.847 1.934-7.047 0-7.907-.212-8.779-2.165-.607-1.362-1.935-2.208-3.575-2.28-1.435-.063-2.363.285-2.062.772.306.496-.501.564-1.827.156-3.241-.998-3.562-1.437-1.846-2.522 1.053-.666.333-.939-2.529-.961-3.127-.024-3.672-.266-2.5-1.11 1.298-.933 1.281-1.009-.125-.564-1.193.378-1.625-.125-1.625-1.893 0-2.058.382-2.337 2.625-1.915 1.444.272 1.95.205 1.125-.147a64 64 0 0 1-3.387-1.615c-1.66-.856-1.827-.658-1.389 1.635.424 2.216.143 2.609-1.863 2.609-1.298 0-2.361.436-2.361.969s-.787.715-1.75.407c-1.186-.381-.977.069.649 1.398 1.847 1.509 2.077 2.103 1 2.584-.769.343-.499.427.601.186 7.596-1.661 9.233-1.683 9.829-.129.335.872 1.324 1.585 2.199 1.585.901 0 1.296.476.91 1.1-.472.765-.027.751 1.462-.046 1.178-.631 2.544-.898 3.035-.594s1.062.049 1.267-.567c.206-.616.922.084 1.592 1.555 1.2 2.633 1.184 2.65-1.01 1.113-1.226-.858-2.504-1.561-2.839-1.561-.801 0-.549 3.214.369 4.698.395.64.192 1.489-.452 1.887-.705.436-.904.292-.5-.361.369-.597.148-1.409-.491-1.804-.808-.499-1.009.076-.662 1.894.372 1.947-.164 3.194-2.105 4.899L108.5 119.5l2-2.548c1.529-1.948 1.332-1.863-.837.363-2.063 2.117-3.137 2.611-3.937 1.811-.799-.799-.5-1.737 1.096-3.437 1.208-1.286 1.855-2.679 1.437-3.097-.417-.417-.14-.609.616-.425.756.183 1.586-.244 1.844-.948.258-.705-.08-1.155-.75-1-.671.154-1.422-.394-1.67-1.219-.268-.89-.115-1.093.375-.5.454.55 1.659 1.143 2.676 1.317 2.596.444 1.178-1.493-2.475-3.381-2.423-1.253-3.653-1.334-6.417-.422-1.88.62-3.836.871-4.345.556-.51-.315-.734.44-.499 1.679.392 2.065.354 2.085-.455.251-.485-1.1-.643-2.636-.351-3.414.379-1.007.123-1.168-.888-.558-1.187.716-1.207.593-.121-.747.932-1.151.984-1.797.183-2.292-1.685-1.042-2.227.004-2.734 5.278-.347 3.614-.062 5.142 1.145 6.144.884.734 1.607 1.729 1.607 2.211 0 .483-.877.001-1.949-1.071-1.713-1.713-1.927-3.227-1.765-12.455l.185-10.506 4.515-.365 4.514-.365-4.691-.18c-2.58-.099-4.876.158-5.103.57m66.056-.043c1.244.239 3.044.23 4-.02s-.062-.446-2.262-.435-2.982.216-1.738.455m6.51 3.293c0 2.475.195 3.487.434 2.25.238-1.237.238-3.263 0-4.5-.239-1.237-.434-.225-.434 2.25M104.5 92c2.749 1.181 4.328 1.181 2.5 0-.825-.533-2.175-.945-3-.914-.989.036-.819.347.5.914m44.5.014c-1.055.692-.462.793 2 .341 4.313-.791 5.126-1.36 1.917-1.34-1.329.009-3.092.458-3.917.999m-84.147 1.649c.618 1.189 1.692 2.391 2.386 2.671.996.402.999.525.011.587-1.705.108-1.581 1.738.184 2.415 2.349.902 1.428-3.123-1.285-5.614l-2.42-2.222zm51.397-.974c.963.252 2.537.252 3.5 0 .963-.251.175-.457-1.75-.457s-2.713.206-1.75.457m-64.529.964c.961.389.961.775 0 1.816-.672.726-1.628 1.074-2.126.772-.497-.303-.583-.03-.19.606.514.83 1.372.662 3.047-.596 2.216-1.664 1.714-3.326-.952-3.157-.55.035-.451.286.221.559m6.843 1.64c.376.986.935 1.541 1.243 1.233s.001-1.114-.683-1.793c-.988-.98-1.102-.865-.56.56m38.436.1c0 .216.698.661 1.552.989.89.341 1.291.173.941-.393-.587-.951-2.493-1.406-2.493-.596m45.459.674c-.363.586-.445 1.281-.183 1.543s.743-.218 1.069-1.067c.676-1.762.1-2.072-.886-.476M71 99c-.901.582-1.025.975-.309.985.655.008 1.469-.435 1.809-.985.767-1.242.421-1.242-1.5 0m156-.607c0 .216.698.661 1.552.989.89.341 1.291.173.941-.393-.587-.951-2.493-1.406-2.493-.596M101.472 99.92c.665 1.102.428 1.257-1.058.691-1.442-.55-1.632-.445-.77.424.629.634 1.936.998 2.906.809 1.657-.324 1.652-.433-.086-1.844-1.478-1.2-1.677-1.216-.992-.08m42.23 2.413c-.281.734.078 1.334.798 1.334s1.079-.6.798-1.334c-.282-.733-.641-1.333-.798-1.333s-.516.6-.798 1.333m35.031-.209c.679.684 1.486.991 1.793.683.308-.308-.247-.867-1.233-1.243-1.425-.542-1.54-.428-.56.56M185 103.5c0 .825.436 1.5.969 1.5s.709-.675.393-1.5c-.317-.825-.753-1.5-.969-1.5s-.393.675-.393 1.5m-3 .441c0 .518.445 1.216.989 1.552.566.35.734-.051.393-.941-.665-1.732-1.382-2.049-1.382-.611M163 106c-1.282.828-1.246.972.25.985.963.008 1.75-.435 1.75-.985 0-1.22-.113-1.22-2 0m27-.167c0 .642-.787 1.174-1.75 1.182-1.48.013-1.521.161-.264.955 1.037.656 1.744.477 2.341-.59.471-.842.59-1.796.265-2.122-.326-.325-.592-.066-.592.575m-85.771 1.355c.618 1.854 2.771 2.161 2.771.395 0-.87-.713-1.583-1.583-1.583-.871 0-1.406.534-1.188 1.188M168.963 123l-.463 17.5-4.897-.316c-9.3-.599-26.028 3.458-28.103 6.816-.396.641.792.341 2.64-.667 2.825-1.541 5.696-1.833 18.034-1.833h14.675l.575-2.875c.317-1.581.489-7.881.383-14-.161-9.328-.279-10.075-.728-4.625-.48 5.825-.594 5.254-1.094-5.5l-.558-12zM194 107.094c0 .498.675.906 1.5.906s1.5.45 1.5 1 .436 1 .969 1 .726-.631.43-1.401c-.611-1.594-4.399-2.89-4.399-1.505m19-.639c0 .772 2.976 1.392 3.399.709.254-.412-.406-.814-1.468-.894s-1.931.003-1.931.185m8.333 1.061c0 .816.6 1.484 1.334 1.484.733 0 1.34.563 1.348 1.25q.016 1.25.985-.25c.533-.825.976-1.107.985-.628.008.48.611.378 1.339-.226.969-.804 1.693-.77 2.702.128 1.145 1.019 1.176.957.184-.366-.656-.876-.993-1.792-.749-2.036s-.384-.443-1.395-.443c-1.096 0-1.638.524-1.341 1.297.517 1.346-2.106.82-4.308-.865-.664-.508-1.084-.254-1.084.655m13.27-.683c-.283.459.12.834.897.834s1.18-.375.897-.834-.687-.833-.897-.833-.614.375-.897.833m12.608.566c.709.77 1.447 1.25 1.639 1.067.593-.564-.91-2.466-1.948-2.466-.54 0-.401.63.309 1.399M112.5 108c.34.55.816 1 1.059 1s.441-.45.441-1-.477-1-1.059-1-.781.45-.441 1m42.033-.235c.569.404 1.075 1.522 1.125 2.485s.148 2.109.217 2.549 1.887.777 4.041.75c2.968-.037 3.887-.44 3.797-1.663-.106-1.443-.475-1.465-3.486-.208-3.109 1.299-3.345 1.27-3.072-.385.36-2.19-.854-4.298-2.464-4.278-.779.01-.834.27-.158.75m46.2.359c.679.684 1.486.991 1.793.683.308-.308-.247-.867-1.233-1.243-1.425-.542-1.54-.428-.56.56m4.267-.534c0 .091.761.783 1.692 1.538.931.754 1.378.848.994.207-.384-.64-.133-1.382.558-1.648s.244-.433-.994-.372-2.25.185-2.25.275m-66.288 1.031c-.316.316-.33 1.211-.032 1.988.358.932.05 1.225-.902.859-.861-.33-1.445.048-1.445.935 0 1.033.485 1.241 1.584.678 2.188-1.121 4.009-.364 8.083 3.361 3.506 3.205 6.03 3.967 6.68 2.018.191-.573-.359-1.923-1.222-3-1.503-1.878-1.521-1.863-.432.376 1.74 3.577.818 3.212-3.026-1.198-1.925-2.208-2.825-3.628-2-3.155 1.113.639 1.06.358-.204-1.089-1.647-1.884-5.906-2.95-7.084-1.773m43.557.072c.973.254 2.323.237 3-.037s-.119-.481-1.769-.461-2.204.244-1.231.498m-60.075 2.038c.561.677.851 3.002.644 5.166s-.029 3.721.394 3.46c.422-.261.768 2.841.768 6.893 0 4.93.486 8.01 1.468 9.309.808 1.067 1.483 3.179 1.5 4.691.018 1.512.482 2.75 1.032 2.75s1-1.056 1-2.346.633-3.653 1.407-5.25 1.706-7.179 2.072-12.404c.802-11.475 1.129-12.777 3.318-13.202.937-.182-1.97-.324-6.46-.314-6.348.012-7.936.29-7.143 1.247m17.885-1.04c-.136 2.048 1.633 2.365 3.058.548 1.216-1.551 1.185-1.6-.29-.447-1.35 1.055-1.747 1.055-2.171 0-.356-.887-.543-.918-.597-.101M171.232 112c0 1.925.206 2.713.457 1.75.252-.963.252-2.537 0-3.5-.251-.963-.457-.175-.457 1.75m39.322-1.912c.31.502 1.287.912 2.172.912 1.895 0 .882-1.294-1.26-1.608-.811-.119-1.222.194-.912.696m-91.434 1.516c.89 1.043 1.867 2.571 2.171 3.396q.55 1.493.63-.715c.048-1.334-.816-2.684-2.171-3.395-2.142-1.125-2.172-1.09-.63.714m28.423.327c-.683 1.105.894 2.299 1.818 1.375.95-.951.773-2.306-.302-2.306-.518 0-1.2.419-1.516.931m41.17.413c.287.464 1.532.651 2.767.415 1.782-.341 2.147-.05 1.767 1.406-.314 1.199.059 1.835 1.074 1.835 1.57 0 2.008-3.88.466-4.125-3.109-.494-6.507-.231-6.074.469m12.287-.951c0 .216.698.661 1.552.989.89.341 1.291.173.941-.393-.587-.951-2.493-1.406-2.493-.596m9.333 2.107c0 .72.6 1.079 1.334.798.733-.282 1.333-.641 1.333-.798s-.6-.516-1.333-.798c-.734-.281-1.334.078-1.334.798M215 113c-1.207.78-1.049.972.809.985 1.288.008 2.036-.427 1.691-.985-.743-1.202-.639-1.202-2.5 0m10.87-.102c1.14.723 1.116 1.014-.147 1.735-1.265.723-1.294 1.072-.173 2.107.846.781 1.571.873 1.956.25.337-.544.109-.99-.506-.99s-.84-.45-.5-1c.991-1.603 2.499-1.154 2.515.75.013 1.495.156 1.531.982.25 1.082-1.68-1.222-4.011-3.938-3.985-1.268.013-1.303.178-.189.883m21.731-.062c-.254.412.406.814 1.468.894 2.297.173 2.499-.298.463-1.079-.807-.31-1.676-.227-1.931.185m-113.522 1.747c.048 1.165.285 1.402.604.605.289-.722.253-1.585-.079-1.917s-.568.258-.525 1.312M153 113.378c0 .207.685.946 1.523 1.641 1.273 1.057 1.42.995.893-.378-.538-1.401-2.416-2.384-2.416-1.263m46 .622c0 .55.45 1 1 1s1-.45 1-1-.45-1-1-1-1 .45-1 1m-57 .826c0 .646.477 1.174 1.059 1.174s.774.461.426 1.025-.263.96.191.881c1.955-.339 2.493.186 1.462 1.427-.837 1.01-.746 1.334.378 1.334 2.231 0 1.789-2.032-1.016-4.667-1.375-1.292-2.5-1.82-2.5-1.174m45.74 1.287c.245.936 1.345 1.937 2.445 2.225 1.883.492 1.902.416.332-1.32-1.562-1.725-1.551-1.873.158-2.319 1.112-.29.808-.439-.778-.382-1.935.071-2.488.531-2.157 1.796m31.01-.721c-2.191 1.663-2.228 2.426-.108 2.247.904-.076 1.862.486 2.13 1.25.338.964.065 1.135-.892.558-1.037-.624-1.007-.372.12 1.017 1.392 1.714 1.524 1.723 1.837.118.192-.982.926-1.503 1.7-1.206.847.325 1.166.013.843-.828-.285-.743-1.5-1.646-2.699-2.008-2.135-.643-2.139-.675-.181-1.528 1.308-.57 1.481-.885.5-.91-.825-.021-2.287.559-3.25 1.29m19.849.212c-.352.915-1.256 1.358-2.107 1.031-1.641-.63-1.755-.219-.862 3.115.332 1.237 1.296 2.25 2.142 2.25 1.318 0 1.291-.273-.19-1.909-1.646-1.819-1.629-1.941.345-2.568 1.14-.362 2.073-1.302 2.073-2.09 0-1.896-.638-1.818-1.401.171m-25.002.24c-.346.56-.142 1.319.453 1.687 1.538.95 2.53-.351 1.246-1.635-.718-.718-1.277-.735-1.699-.052m37.706-.052c-1.558.99-.348 2.633 2.197 2.983 1.844.253 1.862.19.229-.812-.974-.597-1.51-1.508-1.191-2.024.696-1.127.367-1.166-1.235-.147m-69.111 1.283c.197.591.786 1.075 1.308 1.075s1.111-.484 1.308-1.075S184.417 116 183.5 116s-1.505.484-1.308 1.075m20.267-.008c-1.066 1.724-.132 1.867 2.543.387 2.409-1.334 2.42-1.384.307-1.419-1.205-.019-2.488.445-2.85 1.032M232 117c0 .55.45 1 1 1s1-.45 1-1-.45-1-1-1-1 .45-1 1m9.721.714c.287.75-.246 1.286-1.281 1.286-.975 0-1.507.266-1.182.591.885.885 4.487-.485 5.036-1.915.272-.708-.288-1.247-1.294-1.247-1.034 0-1.567.536-1.279 1.285m-13.971.975c-2.079.544-2.352 2.311-.357 2.311.766 0 1.652-.675 1.969-1.5.316-.825.477-1.448.357-1.384-.121.064-1.006.322-1.969.573M212 121.5c-.718.865-.815 1.5-.229 1.5.558 0 1.274-.675 1.591-1.5s.419-1.5.229-1.5-.906.675-1.591 1.5m19.02.024c.696.838 1.471 1.318 1.723 1.067.693-.694-.716-2.591-1.924-2.591-.664 0-.588.574.201 1.524m12.618-.024c.317.825 1.033 1.5 1.591 1.5.586 0 .489-.635-.229-1.5-.685-.825-1.401-1.5-1.591-1.5s-.087.675.229 1.5m9.112.799c-3.135 1.239-3.372 1.94-1.25 3.701 1.26 1.046 1.5.874 1.5-1.069 0-2.249.041-2.26 1.474-.372 1.407 1.853 1.465 1.816 1.282-.809-.106-1.513-.207-2.702-.224-2.644-.018.059-1.27.596-2.782 1.193m-67 .363c.688.278 1.813.278 2.5 0 .688-.277.125-.504-1.25-.504s-1.937.227-1.25.504M239 124c0 .55.477 1 1.059 1s.781-.45.441-1-.816-1-1.059-1-.441.45-.441 1m-44.187.683c.721.289 1.584.253 1.916-.079s-.258-.568-1.312-.525c-1.165.048-1.402.285-.604.604M222 125c0 .55.45 1 1 1s1-.45 1-1-.45-1-1-1-1 .45-1 1m-44.921 1.583c.048 1.165.285 1.402.604.605.289-.722.253-1.585-.079-1.917s-.568.258-.525 1.312M217.5 126c.34.55 1.068 1 1.618 1s.722-.45.382-1-1.068-1-1.618-1-.722.45-.382 1m7.242 1.085c-.967.563-2.173.767-2.681.453-.507-.314-1.205-.113-1.551.446-.381.617.794 1.016 2.99 1.016 1.99 0 3.364-.412 3.053-.915s0-1.142.691-1.421c.691-.278.806-.528.256-.555-.55-.026-1.791.412-2.758.976m8.717-.018c-.363.586-.445 1.281-.183 1.543s.743-.218 1.069-1.067c.676-1.762.1-2.072-.886-.476M242 128.5c0 .825.787 1.493 1.75 1.485 1.37-.012 1.454-.203.387-.879-1.151-.729-1.151-.948 0-1.406.95-.378.833-.566-.387-.621-.963-.043-1.75.596-1.75 1.421m4.281.418c-.165 2.193 1.234 3.676 2.118 2.246.295-.478-.026-1.639-.714-2.579-1.153-1.578-1.262-1.552-1.404.333M209 128.819c0 1.208 1.897 2.617 2.591 1.924.251-.252-.229-1.027-1.067-1.723-.95-.789-1.524-.865-1.524-.201m17.995.687c-.756.911-.769 1.515-.044 1.964.577.356 1.063.284 1.079-.161s.495-.012 1.062.962 1.422 1.529 1.9 1.234c.479-.296 1.152-.08 1.498.479.345.559 1.107 1.016 1.691 1.016.657 0 .573-.591-.219-1.546-.705-.85-1.848-1.328-2.539-1.063s-1.489-.12-1.771-.856c-.905-2.358.54-2.535 3.5-.427 1.582 1.127 3.433 1.824 4.113 1.549.72-.291.506-.532-.515-.578-.963-.043-1.75-.477-1.75-.962 0-.783-1.97-1.688-5.706-2.625-.664-.166-1.698.29-2.299 1.014M194 129.393c0 .216.698.661 1.552.989.89.341 1.291.173.941-.393-.587-.951-2.493-1.406-2.493-.596m4.5.607c-.34.55-.141 1 .441 1s1.059-.45 1.059-1-.198-1-.441-1-.719.45-1.059 1m55.711 1.538c-1.066 1.208-1.022 1.462.25 1.462.846 0 1.539-.675 1.539-1.5 0-1.824-.15-1.82-1.789.038m-41.579.248c-.267.432.382.785 1.441.785s1.927-.353 1.927-.785-.648-.786-1.441-.786-1.659.354-1.927.786m-15.029 1.381c.283.458.938.833 1.456.833s.941-.375.941-.833c0-.459-.655-.834-1.456-.834s-1.224.375-.941.834m45.165.001c.582.582 1.647.86 2.369.62.749-.25.295-.703-1.057-1.057-1.663-.435-2.054-.305-1.312.437m7.05 1.05c.533.533 1.805.793 2.826.576 1.375-.291 1.123-.543-.97-.969-1.825-.373-2.482-.233-1.856.393m-157.005.465c.721.289 1.584.253 1.916-.079s-.258-.568-1.312-.525c-1.165.048-1.402.285-.604.604m111.724.256c-.319.517.298.874 1.372.793s1.732-.504 1.463-.94c-.665-1.075-2.126-.999-2.835.147M238.5 135c-.34.55.057 1 .882 1s1.778-.45 2.118-1-.057-1-.882-1-1.778.45-2.118 1m-113.421 3.583c.048 1.165.285 1.402.604.605.289-.722.253-1.585-.079-1.917s-.568.258-.525 1.312M243.5 138c.34.55.816 1 1.059 1s.441-.45.441-1-.477-1-1.059-1-.781.45-.441 1m-15.5.393c0 .216.698.661 1.552.989.89.341 1.291.173.941-.393-.587-.951-2.493-1.406-2.493-.596m4.476.416c.319.319 1.95.675 3.624.791s2.756-.078 2.403-.43c-.352-.353-1.983-.709-3.624-.791s-2.722.111-2.403.43M34.5 179.923v14.923l5.5.327c9.212.548 10.782.098 11.529-3.305.881-4.013-.042-4.674-2.847-2.039-1.33 1.249-3.607 2.171-5.363 2.171h-3.052l.384-7.25c.212-3.988.55-10.062.752-13.5l.367-6.25h-3.635l-3.635-.001zm88.963-12.741c.882 2.797.872 2.491.555 16.818l-.254 11.5 7.852-.022c7.627-.021 7.878-.099 8.804-2.73 1.204-3.425.142-4.566-2.243-2.409-1.009.914-3.293 1.661-5.076 1.661h-3.241l.239-13.25.238-13.25-3.803-.318c-3.573-.299-3.759-.178-3.071 2m-63.011 4.176c-4.381 1.977-6.683 6.035-6.683 11.782 0 5.675 1.938 9.14 6.403 11.449 9.925 5.133 20.807-5.474 16.697-16.275-2.501-6.57-10.118-9.798-16.417-6.956M80.5 182.5V195h7.254l-.507-4.5c-.279-2.475-.105-4.5.387-4.5s2.001 1.791 3.354 3.98 3.699 4.412 5.214 4.94c3.339 1.165 4.667-.277 2.517-2.733-.813-.928-2.163-3.042-3.001-4.698-1.404-2.778-1.375-3.195.38-5.361 1.922-2.375 2.487-6.706 1.137-8.728-1.488-2.229-5.25-3.4-10.919-3.4H80.5zm25-11.5c-2.53.316-3.541.797-2.75 1.309 1.649 1.067 1.741 19.8.105 21.436-1.614 1.614 2.252 2.444 9.608 2.061 5.443-.283 5.948-.514 6.812-3.118 1.17-3.527.292-4.511-2.098-2.349-1.009.914-3.262 1.661-5.006 1.661-3.033 0-3.171-.174-3.171-4 0-3.6.25-4 2.5-4 1.375 0 2.5.45 2.5 1s.45 1 1 1 1-1.575 1-3.5-.45-3.5-1-3.5-1 .45-1 1-1.125 1-2.5 1c-2.241 0-2.5-.406-2.5-3.912 0-3.186.325-3.849 1.75-3.576.963.184 2.537.369 3.5.411.963.043 1.75.779 1.75 1.636s.45 1.281 1 .941c1.157-.715 1.368-5.455.25-5.591-3.035-.371-8.39-.329-11.75.091m37.968-.135c-.248.248.027 1.027.611 1.73 1.021 1.231.939 18.106-.105 21.405-.332 1.05.376 1.597 2.36 1.825 3.985.456 6.343-.548 4.833-2.058-1.529-1.529-1.575-18.959-.054-20.48 1.821-1.821-.021-3.356-3.729-3.106-1.906.128-3.668.436-3.916.684m17.405.819c-3.716 2.306-5.873 6.446-5.873 11.27 0 8.567 5.765 13.747 13.859 12.453 2.126-.34 4.319-.908 4.874-1.263s1.208-3.456 1.452-6.894l.443-6.25h-3.814c-3.638 0-4.959 1.174-2.814 2.5 1.574.973 1.226 8.476-.422 9.108-2.122.815-5.362-1.289-7.068-4.588-2.326-4.498-1.936-9.685.945-12.565 3.008-3.009 5.874-3.126 8.645-.355 2.418 2.418 4.477 1.294 3.466-1.891-1.094-3.448-9.15-4.345-13.693-1.525M180.5 182.5V195h6.128l-.419-5.783-.418-5.783 2.855.127c6.999.31 6.641-.035 6.146 5.939l-.457 5.5 3.583-.001 3.582-.001v-24.577l-3.587-.041-3.587-.04.464 4.83.464 4.83h-4.627c-4.606 0-4.627-.015-4.627-3.441 0-1.893.498-3.749 1.107-4.125 1.541-.952-.916-2.399-4.107-2.419l-2.5-.015zM205 174c0 3.381.486 3.657 2.643 1.5.825-.825 2.143-1.5 2.928-1.5 1.874 0 2.081 17.948.229 19.8-.933.933 0 1.2 4.2 1.2s5.133-.267 4.2-1.2c-1.81-1.81-1.649-19.8.178-19.8.757 0 1.937.675 2.622 1.5 1.928 2.323 3 1.787 3-1.5v-3h-20zm-140.992-.05c-5.318 1.358-6.981 12.167-2.553 16.595 1.35 1.35 3.17 2.455 4.045 2.455s2.695-1.105 4.045-2.455c1.897-1.896 2.455-3.503 2.455-7.065 0-7.363-2.906-10.828-7.992-9.53M87 178.094c0 5.331.912 5.994 4 2.906 3.129-3.129 2.388-6.198-1.75-7.244-2.105-.532-2.25-.252-2.25 4.338m115-3.594c0 .825.375 1.5.833 1.5.459 0 .834-.675.834-1.5s-.375-1.5-.834-1.5-.833.675-.833 1.5"/></svg>